<?xml version="1.0" encoding="UTF-8"?>
<svg xmlns="http://www.w3.org/2000/svg" xmlns:xlink="http://www.w3.org/1999/xlink" width="36px" height="36px" viewBox="0 0 36 36" version="1.1">
<g id="surface1">
<path style=" stroke:none;fill-rule:nonzero;fill:rgb(100%,100%,100%);fill-opacity:1;" d="M 18 0.210938 C 8.171875 0.210938 0.210938 8.171875 0.210938 18 C 0.210938 27.828125 8.171875 35.789062 18 35.789062 C 27.828125 35.789062 35.789062 27.828125 35.789062 18 C 35.789062 8.171875 27.828125 0.210938 18 0.210938 Z M 18 7.097656 C 21.488281 7.097656 24.3125 9.921875 24.3125 13.410156 C 24.3125 16.894531 21.488281 19.722656 18 19.722656 C 14.511719 19.722656 11.6875 16.894531 11.6875 13.410156 C 11.6875 9.921875 14.511719 7.097656 18 7.097656 Z M 18 31.773438 C 13.789062 31.773438 10.015625 29.867188 7.492188 26.882812 C 8.839844 24.339844 11.480469 22.589844 14.558594 22.589844 C 14.730469 22.589844 14.902344 22.621094 15.066406 22.671875 C 16 22.972656 16.972656 23.164062 18 23.164062 C 19.027344 23.164062 20.007812 22.972656 20.933594 22.671875 C 21.097656 22.621094 21.269531 22.589844 21.441406 22.589844 C 24.519531 22.589844 27.160156 24.339844 28.507812 26.882812 C 25.984375 29.867188 22.210938 31.773438 18 31.773438 Z M 18 31.773438 "/>
</g>
</svg>
