<svg width="20" height="20" viewBox="0 0 20 20" fill="none" xmlns="http://www.w3.org/2000/svg">
<path d="M20 10.0001C20 15.3726 15.6448 19.7278 10.2723 19.7278C4.89989 19.7278 0.544678 15.3726 0.544678 10.0001C0.544678 4.62767 4.89989 0.272461 10.2723 0.272461C15.6448 0.272461 20 4.62767 20 10.0001ZM9.14715 15.1509L16.3645 7.93355C16.6095 7.68847 16.6095 7.29109 16.3645 7.04602L15.4769 6.15848C15.2319 5.91337 14.8345 5.91337 14.5894 6.15848L8.70337 12.0444L5.95534 9.2964C5.71027 9.05133 5.31288 9.05133 5.06777 9.2964L4.18024 10.1839C3.93516 10.429 3.93516 10.8264 4.18024 11.0715L8.25958 15.1508C8.5047 15.3959 8.90204 15.3959 9.14715 15.1509Z" fill="#D59902"/>
</svg>
