<svg width="20" height="20" viewBox="0 0 20 20" fill="none" xmlns="http://www.w3.org/2000/svg">
<path d="M9.86442 0.434326C4.5482 0.434326 0.240906 4.71569 0.240906 9.9999C0.240906 15.2841 4.5482 19.5655 9.86442 19.5655C15.1806 19.5655 19.4879 15.2841 19.4879 9.9999C19.4879 4.71569 15.1806 0.434326 9.86442 0.434326ZM13.4534 12.507L12.6774 13.4713C12.6264 13.5346 12.5634 13.5873 12.492 13.6264C12.4206 13.6655 12.3421 13.6902 12.2611 13.6992C12.1801 13.7081 12.098 13.7011 12.0197 13.6786C11.9414 13.656 11.8683 13.6183 11.8046 13.5677L9.20474 11.65C9.02308 11.5054 8.87645 11.3221 8.77569 11.1136C8.67494 10.9051 8.62264 10.6767 8.62267 10.4454V4.4457C8.62267 4.28202 8.68809 4.12505 8.80452 4.00932C8.92096 3.89358 9.07888 3.82856 9.24354 3.82856H10.4853C10.65 3.82856 10.8079 3.89358 10.9243 4.00932C11.0407 4.12505 11.1062 4.28202 11.1062 4.4457V9.9999L13.3568 11.6392C13.4205 11.6898 13.4736 11.7525 13.5129 11.8235C13.5522 11.8945 13.5771 11.9726 13.5861 12.0532C13.595 12.1338 13.5879 12.2153 13.5652 12.2932C13.5424 12.3711 13.5045 12.4437 13.4534 12.507Z" fill="#A19D9D"/>
</svg>
