<svg width="22" height="30" viewBox="0 0 22 30" fill="none" xmlns="http://www.w3.org/2000/svg">
<path d="M18.655 4.33996H14.2134C14.2134 2.38007 12.6199 0.786621 10.66 0.786621C8.70013 0.786621 7.10668 2.38007 7.10668 4.33996H2.66501C1.1937 4.33996 0 5.53366 0 7.00497V26.5483C0 28.0196 1.1937 29.2133 2.66501 29.2133H18.655C20.1263 29.2133 21.32 28.0196 21.32 26.5483V7.00497C21.32 5.53366 20.1263 4.33996 18.655 4.33996ZM10.66 3.00746C11.3985 3.00746 11.9925 3.60153 11.9925 4.33996C11.9925 5.07839 11.3985 5.67246 10.66 5.67246C9.92159 5.67246 9.32752 5.07839 9.32752 4.33996C9.32752 3.60153 9.92159 3.00746 10.66 3.00746ZM17.3892 15.8772L9.44967 23.7501C9.18872 24.011 8.76676 24.0055 8.50581 23.7445L3.91978 19.1196C3.65883 18.8587 3.66438 18.4367 3.92533 18.1758L5.50213 16.6101C5.76307 16.3491 6.18503 16.3547 6.44598 16.6156L8.99995 19.1918L14.8852 13.351C15.1461 13.0901 15.5681 13.0956 15.829 13.3566L17.3947 14.9334C17.6557 15.1999 17.6501 15.6163 17.3892 15.8772Z" fill="white"/>
</svg>
