<svg width="24" height="30" viewBox="0 0 24 30" fill="none" xmlns="http://www.w3.org/2000/svg">
<path d="M12.9284 14.9782L22.8592 24.9091C23.5456 25.5955 23.5456 26.7054 22.8592 27.3845L21.209 29.0348C20.5226 29.7212 19.4127 29.7212 18.7336 29.0348L11.687 22.0028L4.64779 29.0421C3.96139 29.7285 2.85147 29.7285 2.17238 29.0421L0.514799 27.3918C-0.1716 26.7054 -0.1716 25.5955 0.514799 24.9164L10.4457 14.9855C11.1321 14.2918 12.242 14.2918 12.9284 14.9782ZM10.4457 0.958158L0.514799 10.889C-0.1716 11.5754 -0.1716 12.6853 0.514799 13.3644L2.16508 15.0147C2.85147 15.7011 3.96139 15.7011 4.64049 15.0147L11.6797 7.97549L18.719 15.0147C19.4054 15.7011 20.5153 15.7011 21.1944 15.0147L22.8446 13.3644C23.531 12.678 23.531 11.5681 22.8446 10.889L12.9138 0.958158C12.242 0.27176 11.1321 0.27176 10.4457 0.958158Z" fill="#FFB700" fill-opacity="0.64"/>
</svg>
