<svg width="19" height="20" viewBox="0 0 19 20" fill="none" xmlns="http://www.w3.org/2000/svg">
<path d="M16.6161 8.83072H15.6518V6.1996C15.6518 3.13727 12.9116 0.64502 9.54468 0.64502C6.17771 0.64502 3.43753 3.13727 3.43753 6.1996V8.83072H2.47325C1.40852 8.83072 0.544678 9.6164 0.544678 10.5848V17.6011C0.544678 18.5695 1.40852 19.3552 2.47325 19.3552H16.6161C17.6808 19.3552 18.5447 18.5695 18.5447 17.6011V10.5848C18.5447 9.6164 17.6808 8.83072 16.6161 8.83072ZM12.4375 8.83072H6.65182V6.1996C6.65182 4.74883 7.94959 3.56848 9.54468 3.56848C11.1398 3.56848 12.4375 4.74883 12.4375 6.1996V8.83072Z" fill="white"/>
</svg>
