<svg width="142" height="149" viewBox="0 0 142 149" fill="none" xmlns="http://www.w3.org/2000/svg">
<path d="M50.5879 59.149V37.6403C50.5879 30.5097 53.4206 23.6712 58.4626 18.6291C63.5047 13.587 70.3433 10.7544 77.4738 10.7544C84.6044 10.7544 91.443 13.587 96.485 18.6291C101.527 23.6712 104.36 30.5097 104.36 37.6403V59.149M39.8336 59.149H115.114C121.054 59.149 125.868 63.9639 125.868 69.9034V107.544C125.868 113.483 121.054 118.298 115.114 118.298H39.8336C33.8941 118.298 29.0792 113.483 29.0792 107.544V69.9034C29.0792 63.9639 33.8941 59.149 39.8336 59.149Z" stroke="#EBA900" stroke-width="4" stroke-linecap="round" stroke-linejoin="round"/>
<path d="M58.5272 95.5581L26.3372 127.748L11.7054 113.116" stroke="#EBA900" stroke-width="4" stroke-linecap="round" stroke-linejoin="round"/>
<path d="M80.5272 95.5581L48.3372 127.748L33.7054 113.116" stroke="#EBA900" stroke-width="4" stroke-linecap="round" stroke-linejoin="round"/>
</svg>
