<svg width="28" height="27" viewBox="0 0 28 27" fill="none" xmlns="http://www.w3.org/2000/svg">
<path d="M27.3442 23.0874L22.0862 17.8879C21.8488 17.6532 21.5271 17.5229 21.1896 17.5229H20.33C21.7856 15.6819 22.6505 13.3664 22.6505 10.8475C22.6505 4.85529 17.7405 0 11.6809 0C5.62129 0 0.711365 4.85529 0.711365 10.8475C0.711365 16.8397 5.62129 21.695 11.6809 21.695C14.2282 21.695 16.5698 20.8397 18.4314 19.4003V20.2504C18.4314 20.5841 18.5633 20.9023 18.8006 21.1369L24.0586 26.3364C24.5543 26.8267 25.3559 26.8267 25.8464 26.3364L27.3389 24.8606C27.8346 24.3703 27.8346 23.5776 27.3442 23.0874ZM11.6809 17.5229C7.95232 17.5229 4.93042 14.5398 4.93042 10.8475C4.93042 7.16038 7.94705 4.17211 11.6809 4.17211C15.4095 4.17211 18.4314 7.15517 18.4314 10.8475C18.4314 14.5346 15.4148 17.5229 11.6809 17.5229Z" fill="white"/>
</svg>
