<svg width="19" height="19" viewBox="0 0 19 19" fill="none" xmlns="http://www.w3.org/2000/svg">
<path d="M17.1856 0.00230315C15.473 0.1342 12.0692 0.614287 9.96795 2.3599C9.82295 2.48035 9.74076 2.69452 9.74076 2.91845V18.3504C9.74076 18.8402 10.1355 19.1498 10.4683 18.9225C12.6302 17.4457 15.7568 17.0428 17.3028 16.9326C17.8306 16.8948 18.2409 16.3206 18.2409 15.6323V1.30431C18.2412 0.553216 17.7612 -0.0418038 17.1856 0.00230315ZM8.51386 2.3599C6.41289 0.614287 3.00908 0.134624 1.29655 0.00230315C0.720914 -0.0418038 0.240906 0.553216 0.240906 1.30431V15.6327C0.240906 16.3214 0.651225 16.8957 1.17905 16.933C2.72564 17.0433 5.85382 17.4466 8.01573 18.9242C8.34761 19.1511 8.74105 18.8419 8.74105 18.3533V2.91082C8.74105 2.68646 8.65918 2.48077 8.51386 2.3599Z" fill="#A29D9D"/>
</svg>
