<svg width="21" height="16" viewBox="0 0 21 16" fill="none" xmlns="http://www.w3.org/2000/svg">
<path d="M3.53077 6.88646C4.64966 6.88646 5.55934 5.88766 5.55934 4.65917C5.55934 3.43068 4.64966 2.43188 3.53077 2.43188C2.41189 2.43188 1.5022 3.43068 1.5022 4.65917C1.5022 5.88766 2.41189 6.88646 3.53077 6.88646ZM17.7308 6.88646C18.8497 6.88646 19.7593 5.88766 19.7593 4.65917C19.7593 3.43068 18.8497 2.43188 17.7308 2.43188C16.6119 2.43188 15.7022 3.43068 15.7022 4.65917C15.7022 5.88766 16.6119 6.88646 17.7308 6.88646ZM18.7451 8.0001H16.7165C16.1586 8.0001 15.6547 8.24719 15.287 8.64741C16.5643 9.41652 17.4709 10.8051 17.6674 12.4547H19.7593C20.3204 12.4547 20.7736 11.957 20.7736 11.341V10.2274C20.7736 8.9989 19.8639 8.0001 18.7451 8.0001ZM10.6308 8.0001C12.5928 8.0001 14.1808 6.25655 14.1808 4.10235C14.1808 1.94814 12.5928 0.20459 10.6308 0.20459C8.66876 0.20459 7.08077 1.94814 7.08077 4.10235C7.08077 6.25655 8.66876 8.0001 10.6308 8.0001ZM13.0651 9.11375H12.802C12.1427 9.46176 11.4105 9.67057 10.6308 9.67057C9.85104 9.67057 9.12202 9.46176 8.45957 9.11375H8.19649C6.18059 9.11375 4.54506 10.9095 4.54506 13.1229V14.1251C4.54506 15.0474 5.22653 15.7956 6.06649 15.7956H15.1951C16.035 15.7956 16.7165 15.0474 16.7165 14.1251V13.1229C16.7165 10.9095 15.081 9.11375 13.0651 9.11375ZM5.97457 8.64741C5.60689 8.24719 5.10292 8.0001 4.54506 8.0001H2.51649C1.3976 8.0001 0.487915 8.9989 0.487915 10.2274V11.341C0.487915 11.957 0.941174 12.4547 1.5022 12.4547H3.591C3.79068 10.8051 4.6972 9.41652 5.97457 8.64741Z" fill="#A19D9D"/>
</svg>
